<svg width="22" height="21" viewBox="0 0 22 21" fill="none" xmlns="http://www.w3.org/2000/svg">
<path fill-rule="evenodd" clip-rule="evenodd" d="M19.75 14V10.5C19.75 8.0255 19.75 6.78738 18.9809 6.01913C18.259 5.29638 17.1233 5.25262 14.9375 5.25V19.25C17.1233 19.2474 18.259 19.2036 18.9809 18.4809C19.75 17.7126 19.75 16.4736 19.75 14ZM17.125 9.62588C17.3571 9.62588 17.5796 9.71806 17.7437 9.88216C17.9078 10.0463 18 10.2688 18 10.5009C18 10.7329 17.9078 10.9555 17.7437 11.1196C17.5796 11.2837 17.3571 11.3759 17.125 11.3759C16.8929 11.3759 16.6704 11.2837 16.5063 11.1196C16.3422 10.9555 16.25 10.7329 16.25 10.5009C16.25 10.2688 16.3422 10.0463 16.5063 9.88216C16.6704 9.71806 16.8929 9.62588 17.125 9.62588ZM17.125 13.1259C17.3571 13.1259 17.5796 13.2181 17.7437 13.3822C17.9078 13.5463 18 13.7688 18 14.0009C18 14.2329 17.9078 14.4555 17.7437 14.6196C17.5796 14.7837 17.3571 14.8759 17.125 14.8759C16.8929 14.8759 16.6704 14.7837 16.5063 14.6196C16.3422 14.4555 16.25 14.2329 16.25 14.0009C16.25 13.7688 16.3422 13.5463 16.5063 13.3822C16.6704 13.2181 16.8929 13.1259 17.125 13.1259Z" fill="#0066FF"/>
<path d="M14.1238 3.052L12.2381 5.25H13.625V19.25H7.5C5.0255 19.25 3.78738 19.25 3.01912 18.4809C2.25 17.7126 2.25 16.4745 2.25 14.0009V10.5009C2.25 8.02462 2.25 6.78737 3.01912 6.01912C3.78738 5.25 5.0255 5.25 7.5 5.25H9.761L7.87625 3.052C7.76961 2.91915 7.71881 2.75004 7.73459 2.58042C7.75037 2.4108 7.83149 2.25396 7.96079 2.14306C8.0901 2.03216 8.25747 1.97589 8.42751 1.98614C8.59756 1.99639 8.75695 2.07237 8.872 2.198L11 4.6795L13.1263 2.198C13.2395 2.06572 13.4007 1.98385 13.5743 1.9704C13.7479 1.95694 13.9197 2.013 14.052 2.12625C14.1843 2.2395 14.2661 2.40065 14.2796 2.57427C14.2931 2.74788 14.237 2.91972 14.1238 3.052Z" fill="#0066FF"/>
</svg>
