<svg width="22" height="21" viewBox="0 0 22 21" fill="none" xmlns="http://www.w3.org/2000/svg">
<path d="M5.183 5.418L5.75 7.833L5.183 10.2375L7.2935 11.5395L8.585 13.65L11 13.083L13.415 13.65L14.7065 11.5395L16.817 10.2375L16.25 7.833L16.817 5.418L14.717 4.116L13.415 2.0055L11 2.583L8.5955 2.016L7.283 4.116L5.183 5.418ZM11.0105 12.075C9.8966 12.075 8.82831 11.6325 8.04066 10.8448C7.253 10.0572 6.81051 8.98891 6.81051 7.875C6.81051 6.76109 7.253 5.6928 8.04066 4.90515C8.82831 4.1175 9.8966 3.675 11.0105 3.675C13.3205 3.675 15.2 5.5545 15.2 7.8645C15.2 10.1955 13.3205 12.075 11.0105 12.075ZM10.9895 11.025C9.2465 11.025 7.85 9.618 7.85 7.875C7.85 6.1425 9.2465 4.725 10.9895 4.725C12.7325 4.725 14.15 6.1425 14.15 7.875C14.15 9.618 12.7325 11.025 10.9895 11.025ZM15.0215 12.18L13.6775 14.532L11.4935 14.0385L14.15 20.16L15.62 17.85H18.245L15.0215 12.18ZM6.9365 12.2535L8.249 14.616L10.4855 14.0805L7.85 20.16L6.38 17.85H3.755L6.9365 12.2535Z" fill="white"/>
</svg>
