<svg width="22" height="21" viewBox="0 0 22 21" fill="none" xmlns="http://www.w3.org/2000/svg">
<path d="M11 11.375C9.83968 11.375 8.72688 10.9141 7.90641 10.0936C7.08594 9.27312 6.625 8.16032 6.625 7H8.375C8.375 7.69619 8.65156 8.36387 9.14384 8.85616C9.63613 9.34844 10.3038 9.625 11 9.625C11.6962 9.625 12.3639 9.34844 12.8562 8.85616C13.3484 8.36387 13.625 7.69619 13.625 7H15.375C15.375 8.16032 14.9141 9.27312 14.0936 10.0936C13.2731 10.9141 12.1603 11.375 11 11.375ZM11 2.625C11.6962 2.625 12.3639 2.90156 12.8562 3.39384C13.3484 3.88613 13.625 4.55381 13.625 5.25H8.375C8.375 4.55381 8.65156 3.88613 9.14384 3.39384C9.63613 2.90156 10.3038 2.625 11 2.625ZM17.125 5.25H15.375C15.375 4.67547 15.2618 4.10656 15.042 3.57576C14.8221 3.04496 14.4998 2.56266 14.0936 2.15641C13.6873 1.75015 13.205 1.42789 12.6742 1.20803C12.1434 0.988163 11.5745 0.875 11 0.875C9.83968 0.875 8.72688 1.33594 7.90641 2.15641C7.08594 2.97688 6.625 4.08968 6.625 5.25H4.875C3.90375 5.25 3.125 6.02875 3.125 7V17.5C3.125 17.9641 3.30937 18.4092 3.63756 18.7374C3.96575 19.0656 4.41087 19.25 4.875 19.25H17.125C17.5891 19.25 18.0342 19.0656 18.3624 18.7374C18.6906 18.4092 18.875 17.9641 18.875 17.5V7C18.875 6.53587 18.6906 6.09075 18.3624 5.76256C18.0342 5.43437 17.5891 5.25 17.125 5.25Z" fill="white"/>
</svg>
